<svg xmlns="http://www.w3.org/2000/svg" xmlns:xlink="http://www.w3.org/1999/xlink" width="1080" zoomAndPan="magnify" viewBox="0 0 810 809.999993" height="1080" preserveAspectRatio="xMidYMid meet" version="1.0"><path fill="#530000" d="M 237.164062 2.785156 C 194.085938 4.808594 164.671875 11.714844 138.957031 21.785156 C 112.324219 32.164062 89.773438 46.050781 67.339844 68.601562 C 44.867188 91.148438 31.058594 113.734375 20.792969 140.40625 C 10.835938 166.195312 4.082031 195.613281 2.175781 238.726562 C 0.265625 281.878906 -0.152344 295.652344 0.0390625 405.609375 C 0.230469 515.53125 0.726562 529.34375 2.785156 572.53125 C 4.84375 615.609375 11.714844 644.984375 21.785156 670.738281 C 32.164062 697.371094 46.050781 719.882812 68.601562 742.355469 C 91.148438 764.824219 113.734375 778.597656 140.40625 788.902344 C 166.160156 798.859375 195.613281 805.652344 238.6875 807.519531 C 281.878906 809.425781 295.652344 809.847656 405.574219 809.617188 C 515.53125 809.425781 529.304688 808.933594 572.492188 806.871094 C 615.570312 804.8125 644.949219 797.90625 670.703125 787.871094 C 697.332031 777.453125 719.882812 763.605469 742.316406 741.054688 C 764.75 718.507812 778.5625 695.921875 788.863281 669.25 C 798.820312 643.496094 805.613281 614.042969 807.480469 571.007812 C 809.351562 527.816406 809.808594 514.003906 809.617188 404.085938 C 809.425781 294.164062 808.894531 280.390625 806.871094 237.199219 C 804.8125 194.085938 797.945312 164.707031 787.871094 138.957031 C 777.453125 112.324219 763.605469 89.8125 741.054688 67.339844 C 718.507812 44.90625 695.921875 31.058594 669.25 20.792969 C 643.496094 10.835938 614.042969 4.042969 570.96875 2.175781 C 527.777344 0.265625 513.964844 -0.152344 404.046875 0.0390625 C 294.125 0.230469 280.351562 0.726562 237.164062 2.785156 M 241.894531 734.609375 C 202.441406 732.890625 181 726.328125 166.691406 720.835938 C 147.769531 713.507812 134.300781 704.734375 120.070312 690.65625 C 105.875 676.5 97.101562 663.03125 89.699219 644.183594 C 84.167969 629.914062 77.488281 608.511719 75.621094 569.023438 C 73.597656 526.367188 73.140625 513.546875 72.949219 405.457031 C 72.757812 297.40625 73.140625 284.585938 75.011719 241.894531 C 76.6875 202.441406 83.289062 181 88.785156 166.730469 C 96.109375 147.808594 104.847656 134.339844 118.960938 120.105469 C 133.117188 105.914062 146.585938 97.140625 165.472656 89.738281 C 179.742188 84.167969 201.144531 77.527344 240.597656 75.660156 C 283.289062 73.636719 296.070312 73.214844 404.160156 72.988281 C 512.25 72.757812 525.070312 73.140625 567.761719 75.046875 C 607.214844 76.765625 628.65625 83.289062 642.925781 88.820312 C 661.851562 96.148438 675.355469 104.847656 689.550781 119 C 703.742188 133.15625 712.554688 146.585938 719.917969 165.511719 C 725.488281 179.742188 732.128906 201.183594 734 240.597656 C 736.019531 283.289062 736.476562 296.109375 736.667969 404.160156 C 736.859375 512.25 736.476562 525.070312 734.609375 567.726562 C 732.890625 607.175781 726.328125 628.65625 720.835938 642.925781 C 713.507812 661.8125 704.773438 675.316406 690.617188 689.511719 C 676.460938 703.667969 663.03125 712.480469 644.109375 719.882812 C 629.878906 725.453125 608.433594 732.089844 569.023438 733.960938 C 526.328125 735.980469 513.546875 736.441406 405.417969 736.628906 C 297.367188 736.820312 284.550781 736.441406 241.855469 734.570312 M 571.921875 188.441406 C 571.960938 215.261719 593.785156 236.972656 620.566406 236.894531 C 647.390625 236.855469 669.097656 215.070312 669.0625 188.25 C 669.023438 161.425781 647.199219 139.71875 620.375 139.757812 C 593.554688 139.792969 571.84375 161.617188 571.882812 188.402344 M 196.949219 405.230469 C 197.175781 520.03125 290.425781 612.898438 405.191406 612.667969 C 519.996094 612.441406 612.898438 519.230469 612.667969 404.425781 C 612.441406 289.660156 519.195312 196.757812 404.390625 196.949219 C 289.625 197.175781 196.71875 290.425781 196.949219 405.230469 M 269.859375 405.078125 C 269.746094 330.5625 330.027344 270.011719 404.542969 269.898438 C 479.054688 269.746094 539.605469 330.027344 539.757812 404.582031 C 539.910156 479.09375 479.589844 539.644531 405.078125 539.757812 C 330.5625 539.910156 270.011719 479.589844 269.898438 405.078125 " fill-opacity="1" fill-rule="nonzero"/></svg>