<svg xmlns="http://www.w3.org/2000/svg" xmlns:xlink="http://www.w3.org/1999/xlink" width="1080" zoomAndPan="magnify" viewBox="0 0 810 809.999993" height="1080" preserveAspectRatio="xMidYMid meet" version="1.0"><defs><clipPath id="54ff24aa49"><path d="M 0 60.707031 L 810 60.707031 L 810 754.457031 L 0 754.457031 Z M 0 60.707031 " clip-rule="nonzero"/></clipPath></defs><g clip-path="url(#54ff24aa49)"><path fill="#5e0000" d="M 739.066406 60.988281 L 76.886719 60.988281 C 34.507812 60.988281 0 95.496094 0 137.878906 L 0 677.183594 C 0 719.5625 34.507812 754.070312 76.886719 754.070312 L 739.066406 754.070312 C 781.445312 754.070312 815.953125 719.5625 815.953125 677.183594 L 815.953125 137.878906 C 815.953125 95.496094 781.445312 60.988281 739.066406 60.988281 Z M 62.566406 137.878906 C 62.566406 130.089844 69.097656 123.554688 76.886719 123.554688 L 739.066406 123.554688 C 746.855469 123.554688 753.386719 130.089844 753.386719 137.878906 L 753.386719 147.84375 L 415.347656 485.882812 C 411.328125 489.90625 404.625 489.90625 400.605469 485.882812 L 62.566406 147.84375 Z M 753.386719 677.269531 C 753.386719 685.058594 746.855469 691.589844 739.066406 691.589844 L 76.886719 691.589844 C 69.097656 691.589844 62.566406 685.058594 62.566406 677.269531 L 62.566406 236.292969 L 356.300781 530.023438 C 370.035156 543.761719 388.378906 551.382812 407.894531 551.382812 C 427.40625 551.382812 445.75 543.84375 459.488281 530.023438 L 753.21875 236.292969 L 753.21875 677.269531 Z M 753.386719 677.269531 " fill-opacity="1" fill-rule="nonzero"/></g></svg>